<svg width="32" height="32" viewBox="0 0 32 32" fill="none" xmlns="http://www.w3.org/2000/svg">
<path d="M7.91667 23.75L12.9833 12.9833L23.75 7.91667L18.6833 18.6833L7.91667 23.75ZM15.8333 14.4083C15.4554 14.4083 15.0929 14.5585 14.8257 14.8257C14.5585 15.0929 14.4083 15.4554 14.4083 15.8333C14.4083 16.2113 14.5585 16.5737 14.8257 16.841C15.0929 17.1082 15.4554 17.2583 15.8333 17.2583C16.2113 17.2583 16.5737 17.1082 16.841 16.841C17.1082 16.5737 17.2583 16.2113 17.2583 15.8333C17.2583 15.4554 17.1082 15.0929 16.841 14.8257C16.5737 14.5585 16.2113 14.4083 15.8333 14.4083ZM15.8333 0C17.9126 0 19.9715 0.409541 21.8925 1.20524C23.8135 2.00094 25.5589 3.16722 27.0292 4.63748C28.4995 6.10774 29.6657 7.85319 30.4614 9.77418C31.2571 11.6952 31.6667 13.7541 31.6667 15.8333C31.6667 20.0326 29.9985 24.0599 27.0292 27.0292C24.0599 29.9985 20.0326 31.6667 15.8333 31.6667C13.7541 31.6667 11.6952 31.2571 9.77418 30.4614C7.85319 29.6657 6.10774 28.4995 4.63748 27.0292C1.66815 24.0599 0 20.0326 0 15.8333C0 11.6341 1.66815 7.6068 4.63748 4.63748C7.6068 1.66815 11.6341 0 15.8333 0ZM15.8333 3.16667C12.4739 3.16667 9.25211 4.50119 6.87665 6.87665C4.50119 9.25211 3.16667 12.4739 3.16667 15.8333C3.16667 19.1927 4.50119 22.4146 6.87665 24.79C9.25211 27.1655 12.4739 28.5 15.8333 28.5C19.1927 28.5 22.4146 27.1655 24.79 24.79C27.1655 22.4146 28.5 19.1927 28.5 15.8333C28.5 12.4739 27.1655 9.25211 24.79 6.87665C22.4146 4.50119 19.1927 3.16667 15.8333 3.16667Z" fill="#A42169"/>
</svg>
