<svg width="31" height="34" viewBox="0 0 31 34" fill="none" xmlns="http://www.w3.org/2000/svg">
<path d="M15.4932 0.25C16.3224 0.25 17.0699 0.498337 17.7266 0.993164H17.7275L29.2637 9.73633L29.4336 9.86914C29.8188 10.1886 30.1266 10.5802 30.3555 11.041H30.3545C30.6173 11.566 30.75 12.1234 30.75 12.7109V31.3555C30.7499 32.0001 30.5073 32.5635 30.0361 33.0352C29.5649 33.5068 29.0017 33.7499 28.3574 33.75H20.0342C19.5494 33.75 19.1242 33.6049 18.7705 33.3135L18.623 33.1787C18.2428 32.7965 18.0527 32.3199 18.0527 31.7666V21.1289H12.9473V31.7666C12.9473 32.3211 12.7576 32.7976 12.377 33.1787C11.9963 33.5597 11.5208 33.75 10.9678 33.75H2.64258C1.99829 33.7499 1.4351 33.5068 0.963867 33.0352C0.492728 32.5635 0.250104 32.0001 0.25 31.3555V12.7109C0.250036 12.1231 0.382399 11.5652 0.645508 11.04C0.908478 10.5151 1.27229 10.0797 1.73633 9.73828L13.2725 0.993164C13.9209 0.497816 14.6643 0.250081 15.4932 0.25ZM2.89258 31.1055H10.3047V20.4648C10.3048 19.9113 10.4949 19.4355 10.877 19.0547C11.2574 18.6726 11.7331 18.4824 12.2861 18.4824H18.7139C19.267 18.4824 19.7433 18.6728 20.125 19.0547C20.5055 19.4356 20.6952 19.9116 20.6953 20.4648V31.1055H28.1074V12.7109C28.1074 12.5284 28.0682 12.3687 27.9932 12.2275C27.9139 12.0784 27.8049 11.9472 27.6641 11.833V11.832L16.1338 3.13379L16.127 3.12891L16.1201 3.12305C15.9475 2.9727 15.745 2.89746 15.5 2.89746C15.2551 2.89746 15.0537 2.9724 14.8828 3.12207L14.876 3.12891L14.8682 3.13379L3.33594 11.832C3.19545 11.9499 3.08665 12.0831 3.00586 12.2305C2.93121 12.3667 2.89139 12.5249 2.89258 12.71V31.1055Z" fill="#A42169" stroke="#A42169" stroke-width="0.5"/>
</svg>
