<svg width="27" height="33" viewBox="0 0 27 33" fill="none" xmlns="http://www.w3.org/2000/svg">
<path d="M18.75 9H8.25M14.2485 15H8.2485M25.5 31.5H4.5C3.70435 31.5 2.94129 31.1839 2.37868 30.6213C1.81607 30.0587 1.5 29.2957 1.5 28.5M1.5 28.5C1.5 27.7044 1.81607 26.9413 2.37868 26.3787C2.94129 25.8161 3.70435 25.5 4.5 25.5H25.5V7.5C25.5 4.671 25.5 3.258 24.621 2.379C23.742 1.5 22.329 1.5 19.5 1.5H10.5C6.258 1.5 4.1355 1.5 2.8185 2.8185C1.5 4.1355 1.5 6.258 1.5 10.5V28.5Z" stroke="#A42169" stroke-width="3" stroke-linecap="round" stroke-linejoin="round"/>
<path d="M24.75 25.5C24.75 25.5 23.25 26.6445 23.25 28.5C23.25 30.3555 24.75 31.5 24.75 31.5" stroke="#A42169" stroke-width="3" stroke-linecap="round" stroke-linejoin="round"/>
</svg>
