<svg width="32" height="32" viewBox="0 0 32 32" fill="none" xmlns="http://www.w3.org/2000/svg">
<path d="M29.05 31.5L18.025 20.475C17.15 21.175 16.1438 21.7292 15.0063 22.1375C13.8688 22.5458 12.6583 22.75 11.375 22.75C8.19583 22.75 5.5055 21.6487 3.304 19.446C1.1025 17.2433 0.00116759 14.553 9.25926e-07 11.375C-0.00116574 8.197 1.10017 5.50667 3.304 3.304C5.50783 1.10133 8.19817 0 11.375 0C14.5518 0 17.2428 1.10133 19.4478 3.304C21.6528 5.50667 22.7535 8.197 22.75 11.375C22.75 12.6583 22.5458 13.8687 22.1375 15.0062C21.7292 16.1437 21.175 17.15 20.475 18.025L31.5 29.05L29.05 31.5ZM11.375 19.25C13.5625 19.25 15.4222 18.4847 16.954 16.954C18.4858 15.4233 19.2512 13.5637 19.25 11.375C19.2488 9.18633 18.4835 7.32725 16.954 5.79775C15.4245 4.26825 13.5648 3.50233 11.375 3.5C9.18517 3.49767 7.32608 4.26358 5.79775 5.79775C4.26942 7.33192 3.5035 9.191 3.5 11.375C3.4965 13.559 4.26242 15.4187 5.79775 16.954C7.33308 18.4893 9.19217 19.2547 11.375 19.25Z" fill="#A42169"/>
</svg>
