<svg width="25" height="28" viewBox="0 0 25 28" fill="none" xmlns="http://www.w3.org/2000/svg">
<path d="M12.375 13.75C16.17 13.75 19.25 10.67 19.25 6.875C19.25 3.08 16.17 0 12.375 0C8.58 0 5.5 3.08 5.5 6.875C5.5 10.67 8.58 13.75 12.375 13.75ZM12.375 2.75C14.6438 2.75 16.5 4.60625 16.5 6.875C16.5 9.14375 14.6438 11 12.375 11C10.1062 11 8.25 9.14375 8.25 6.875C8.25 4.60625 10.1062 2.75 12.375 2.75ZM1.375 27.5H23.375C24.1313 27.5 24.75 26.8813 24.75 26.125V24.75C24.75 19.4425 20.4325 15.125 15.125 15.125H9.625C4.3175 15.125 0 19.4425 0 24.75V26.125C0 26.8813 0.61875 27.5 1.375 27.5ZM9.625 17.875H15.125C18.92 17.875 22 20.955 22 24.75H2.75C2.75 20.955 5.83 17.875 9.625 17.875Z" fill="#A42169"/>
</svg>
